<svg width="512" height="512" viewBox="0 0 512 512" fill="none" xmlns="http://www.w3.org/2000/svg">
<path d="M256.064 0H255.936C114.784 0 0 114.816 0 256C0 312 18.048 363.904 48.736 406.048L16.832 501.152L115.232 469.696C155.104 496.512 204 512 256.064 512H256.192C397.216 512 512 397.152 512 256C512 114.848 397.216 0 256.064 0Z" fill="#25D366"/>
<path d="M352 192H312V168C312 137.1 286.9 112 256 112C225.1 112 200 137.1 200 168V192H160C133.5 192 112 213.5 112 240V400C112 426.5 133.5 448 160 448H352C378.5 448 400 426.5 400 400V240C400 213.5 378.5 192 352 192ZM224 168C224 150.3 238.3 136 256 136C273.7 136 288 150.3 288 168V192H224V168ZM368 400C368 408.8 360.8 416 352 416H160C151.2 416 144 408.8 144 400V240C144 231.2 151.2 224 160 224H200V256C200 264.8 207.2 272 216 272C224.8 272 232 264.8 232 256V224H280V256C280 264.8 287.2 272 296 272C304.8 272 312 264.8 312 256V224H352C360.8 224 368 231.2 368 240V400Z" fill="white"/>
</svg>
